<?xml version="1.0" standalone="no"?>
<!DOCTYPE svg PUBLIC "-//W3C//DTD SVG 20010904//EN"
 "http://www.w3.org/TR/2001/REC-SVG-20010904/DTD/svg10.dtd">
<svg version="1.0" xmlns="http://www.w3.org/2000/svg"
 width="512.000000pt" height="512.000000pt" viewBox="0 0 512.000000 512.000000"
 preserveAspectRatio="xMidYMid meet">
<metadata>
Created by potrace 1.11, written by Peter Selinger 2001-2013
</metadata>
<g transform="translate(0.000000,512.000000) scale(0.100000,-0.100000)"
fill="#000000" stroke="none">
<path d="M0 4951 l0 -169 635 -3 c474 -3 638 -7 643 -16 17 -27 70 -33 305
-33 240 0 384 -11 422 -33 12 -7 105 -14 240 -19 237 -7 298 -13 330 -33 11
-8 43 -17 70 -21 28 -4 64 -17 81 -30 17 -13 37 -24 45 -24 8 0 19 -10 24 -22
6 -13 20 -24 32 -26 14 -2 23 -11 25 -25 2 -14 11 -23 25 -25 14 -2 23 -11 25
-25 2 -12 13 -26 26 -32 12 -5 22 -16 22 -24 0 -8 11 -31 24 -50 51 -77 51
-69 50 -1804 -1 -1265 -4 -1633 -14 -1727 -10 -87 -17 -120 -27 -120 -15 0
-17 -4 -33 -66 -7 -28 -17 -43 -30 -47 -12 -3 -20 -14 -20 -25 0 -13 -9 -22
-25 -26 -16 -4 -25 -13 -25 -25 0 -12 -8 -21 -21 -23 -12 -2 -27 -12 -33 -23
-15 -28 -27 -35 -58 -35 -18 0 -33 -8 -43 -24 -12 -18 -28 -25 -73 -29 -31 -4
-86 -10 -120 -13 -39 -4 -66 -12 -69 -20 -4 -11 -34 -14 -132 -14 -187 0 -474
-21 -486 -36 -7 -9 -86 -14 -285 -18 -475 -11 -590 -17 -590 -32 0 -12 -79
-14 -470 -14 l-470 0 0 -110 0 -110 2560 0 2560 0 0 2560 0 2560 -2560 0
-2560 0 0 -169z"/>
<path d="M0 2499 l0 -1591 139 4 c115 2 142 6 158 21 14 12 36 17 79 17 70 0
122 13 138 35 8 11 34 18 75 22 50 5 65 10 77 28 10 16 29 25 58 29 31 5 45
12 49 25 3 13 18 21 46 26 25 4 45 14 51 25 6 10 20 20 32 22 15 2 24 11 26
24 2 15 12 24 33 28 16 3 40 17 53 31 13 14 31 25 40 25 9 0 21 11 26 24 5 13
18 27 29 31 12 3 21 15 21 26 0 12 7 19 18 19 23 0 42 19 42 41 0 9 9 19 21
22 11 3 23 15 26 26 3 12 14 21 24 21 11 0 19 7 19 18 0 9 11 31 25 47 14 17
32 45 40 63 8 17 21 32 29 32 10 0 16 9 16 23 0 12 11 34 25 49 14 15 25 38
25 51 0 14 7 30 16 38 25 20 44 65 44 104 0 24 5 35 15 35 16 0 35 58 35 112
0 25 6 41 19 50 17 12 21 36 32 168 16 192 16 265 1 453 -12 156 -15 167 -36
167 -9 0 -15 22 -18 72 -5 59 -9 75 -27 86 -15 11 -21 25 -21 53 0 28 -8 46
-30 71 -18 20 -30 43 -30 60 0 16 -4 28 -8 28 -12 0 -42 56 -42 78 0 14 -8 22
-22 24 -14 2 -24 13 -29 31 -4 15 -19 41 -33 58 -14 17 -26 37 -26 44 0 8 -9
16 -19 20 -10 3 -21 15 -24 26 -3 11 -15 23 -26 26 -12 3 -21 13 -21 23 0 11
-12 22 -30 29 -20 7 -30 17 -30 30 0 14 -6 21 -20 21 -13 0 -24 10 -30 25 -5
14 -20 27 -35 31 -14 3 -25 11 -25 16 0 15 -32 37 -52 38 -10 0 -25 11 -34 25
-9 14 -24 25 -33 25 -9 0 -21 10 -26 23 -7 16 -20 23 -48 25 -26 2 -42 10 -53
28 -12 17 -25 24 -49 24 -24 0 -39 7 -52 25 -14 20 -31 27 -81 33 -38 5 -67
15 -75 25 -8 11 -41 20 -107 28 -52 6 -96 15 -98 20 -2 5 -12 9 -22 9 -10 0
-22 5 -25 10 -4 6 -60 10 -136 10 l-129 0 0 -1591z"/>
</g>
</svg>
